<?xml version="1.0" standalone="no"?>
<!DOCTYPE svg PUBLIC "-//W3C//DTD SVG 20010904//EN"
 "http://www.w3.org/TR/2001/REC-SVG-20010904/DTD/svg10.dtd">
<svg version="1.0" xmlns="http://www.w3.org/2000/svg"
 width="452.000000pt" height="452.000000pt" viewBox="0 0 452.000000 452.000000"
 preserveAspectRatio="xMidYMid meet">

<g transform="translate(0.000000,452.000000) scale(0.100000,-0.100000)"
fill="#000000" stroke="none">
<path d="M2105 4154 c-298 -29 -486 -71 -698 -155 -584 -232 -1008 -671 -1162
-1204 -193 -669 60 -1356 667 -1810 55 -40 78 -64 78 -79 0 -42 -41 -189 -76
-274 -45 -111 -90 -191 -178 -322 -39 -57 -75 -111 -80 -119 -13 -22 301 -8
414 18 228 52 435 162 601 321 l74 70 115 -20 c347 -60 737 -39 1065 59 490
146 900 441 1148 826 432 672 327 1516 -260 2086 -169 165 -313 264 -538 374
-229 112 -434 175 -685 210 -112 15 -405 27 -485 19z m463 -199 c767 -110
1382 -612 1547 -1263 153 -604 -119 -1242 -694 -1626 -463 -309 -1064 -413
-1643 -285 l-96 22 -104 -106 c-152 -155 -300 -245 -492 -297 -43 -12 -80 -19
-82 -17 -3 3 8 32 25 66 83 164 129 320 139 469 l7 103 -115 82 c-483 341
-746 866 -691 1382 39 366 196 675 484 952 295 283 711 474 1137 522 52 6 111
13 130 15 66 8 345 -4 448 -19z"/>
<path d="M2710 2350 l0 -900 270 0 270 0 0 900 0 900 -270 0 -270 0 0 -900z
m360 0 l0 -720 -90 0 -90 0 0 720 0 720 90 0 90 0 0 -720z"/>
<path d="M1270 2170 l0 -720 270 0 270 0 0 720 0 720 -270 0 -270 0 0 -720z
m360 0 l0 -540 -90 0 -90 0 0 540 0 540 90 0 90 0 0 -540z"/>
<path d="M1990 1945 l0 -495 270 0 270 0 0 495 0 495 -270 0 -270 0 0 -495z
m360 0 l0 -315 -90 0 -90 0 0 315 0 315 90 0 90 0 0 -315z"/>
</g>
</svg>
